<?xml version="1.0" encoding="utf-8"?>
<!-- Generator: Adobe Illustrator 21.1.0, SVG Export Plug-In . SVG Version: 6.00 Build 0)  -->
<svg version="1.1" id="Layer_1" xmlns="http://www.w3.org/2000/svg" xmlns:xlink="http://www.w3.org/1999/xlink" x="0px" y="0px"
	 viewBox="0 0 24 24" style="enable-background:new 0 0 24 24;" xml:space="preserve">
<style type="text/css">
	.st0{fill:#A02C9C;}
</style>
<g>
	<g>
		<g>
			<g>
				<g transform="translate(-376 -388) translate(0 80) translate(24 284) translate(340 12)">
					<g>
						<path class="st0" d="M12,17.9V36h7V16.6L12,17.9z M17,34h-3v-2h3V34z M17,30h-3v-2h3V30z M17,26h-3v-2h3V26z M17,22h-3v-2h3
							V22z M21,12v24h15V14.8L21,12z M27,34h-3v-2h3V34z M27,30h-3v-2h3V30z M27,26h-3v-2h3V26z M27,22h-3v-2h3V22z M27,18h-3v-2h3
							V18z M33,34h-3v-2h3V34z M33,30h-3v-2h3V30z M33,26h-3v-2h3V26z M33,22h-3v-2h3V22z"/>
					</g>
				</g>
			</g>
		</g>
	</g>
</g>
</svg>
