<svg width="10" height="6" viewBox="0 0 10 6" fill="none" xmlns="http://www.w3.org/2000/svg">
<path d="M9.08335 1.25001C9.08379 1.32678 9.06908 1.40288 9.04005 1.47395C9.01102 1.54502 8.96825 1.60967 8.91418 1.66417L5.41418 5.16417C5.30489 5.27282 5.15704 5.3338 5.00293 5.3338C4.84882 5.3338 4.70098 5.27282 4.59168 5.16417L1.09168 1.66417C0.996117 1.55258 0.94618 1.40904 0.951851 1.26222C0.957522 1.11541 1.01838 0.976149 1.12227 0.87226C1.22616 0.768372 1.36542 0.707511 1.51223 0.70184C1.65905 0.696169 1.80259 0.746107 1.91418 0.841672L5.00002 3.92751L8.08585 0.841672C8.16709 0.759759 8.2708 0.703776 8.38386 0.680802C8.49691 0.657827 8.61425 0.668893 8.72101 0.712599C8.82778 0.756306 8.91919 0.83069 8.98369 0.926348C9.04818 1.022 9.08287 1.13464 9.08335 1.25001Z" fill="#292071"/>
</svg>
