<svg width="36" height="36" viewBox="0 0 36 36" fill="none" xmlns="http://www.w3.org/2000/svg">
<path d="M27 19.9286V10.9286H21.8571V19.9286C21.8571 20.2836 21.5693 20.5714 21.2143 20.5714H18.6429L24.4286 26.3572L30.2143 20.5714L30.2181 20.5669L27.6429 20.5714C27.2878 20.5714 27 20.2836 27 19.9286Z" fill="#1DA1F2"/>
<path d="M5.93743 2.57143H14.634C14.8777 2.57221 15.1006 2.43432 15.2087 2.21593L16.317 0H4.25443L5.36271 2.21593C5.47082 2.43432 5.69374 2.57221 5.93743 2.57143Z" fill="#1DA1F2"/>
<path d="M33.4286 7.07141H15.4286C14.0084 7.07141 12.8571 8.22268 12.8571 9.64284V14.1428C12.8573 14.3803 12.7266 14.5986 12.5171 14.7105L5.14285 18.6428L12.519 22.5739C12.7282 22.6865 12.8582 22.9053 12.8571 23.1428V27.6428C12.8571 29.063 14.0084 30.2143 15.4286 30.2143H33.4286C34.8487 30.2143 36 29.063 36 27.6428V9.64284C36 8.22268 34.8487 7.07141 33.4286 7.07141ZM31.1233 21.4804L25.3376 27.2661C24.8355 27.768 24.0216 27.768 23.5196 27.2661L17.7339 21.4804C17.3663 21.1127 17.2563 20.5598 17.4553 20.0794C17.6542 19.5991 18.1229 19.2858 18.6429 19.2857H20.5714V10.9286C20.5714 10.2185 21.1471 9.64284 21.8571 9.64284H27C27.7101 9.64284 28.2857 10.2185 28.2857 10.9286V19.2857H30.2143C30.7342 19.2858 31.2029 19.5991 31.4019 20.0794C31.6008 20.5598 31.4909 21.1127 31.1233 21.4804Z" fill="#1DA1F2"/>
<path d="M2.57143 36H18C19.4202 36 20.5714 34.8487 20.5714 33.4286V31.5H15.4286C13.2992 31.4979 11.5736 29.7722 11.5714 27.6429V23.5286L4.53536 19.7769C4.11786 19.5529 3.85734 19.1176 3.85734 18.6438C3.85734 18.1701 4.11786 17.7347 4.53536 17.5108L11.5714 13.7571V9.64286C11.5736 7.5135 13.2992 5.78784 15.4286 5.78571H20.5714V2.57143C20.5714 1.15127 19.4202 0 18 0H17.7544L16.3588 2.79129C16.0339 3.44621 15.3651 3.85954 14.634 3.85714H5.93743C5.20637 3.85954 4.5375 3.44621 4.21264 2.79129L2.817 0H2.57143C1.15127 0 0 1.15127 0 2.57143V33.4286C0 34.8487 1.15127 36 2.57143 36ZM5.14286 33.4286H15.4286C15.7836 33.4286 16.0714 33.7164 16.0714 34.0714C16.0714 34.4265 15.7836 34.7143 15.4286 34.7143H5.14286C4.78782 34.7143 4.5 34.4265 4.5 34.0714C4.5 33.7164 4.78782 33.4286 5.14286 33.4286Z" fill="#1DA1F2"/>
</svg>
