<svg width="11" height="21" viewBox="0 0 11 21" fill="none" xmlns="http://www.w3.org/2000/svg">
<path d="M9.3801 0.632041C9.4626 0.638422 9.5386 0.644796 9.6075 0.650923L9.5491 2.96378C9.49032 2.96337 9.42721 2.96295 9.36028 2.96252C8.94711 2.95992 8.38786 2.95732 7.804 2.95732C7.11291 2.95732 6.5544 3.11523 6.20606 3.56016C5.88293 3.97289 5.84114 4.51903 5.84114 5.00276V7.55678V8.05678H6.34114H9.61259L9.49465 10.5545H6.34114H5.84114V11.0545V20.2693H3.14282V11.0545V10.5545H2.64282H0.574036V8.05678H2.64282H3.14282V7.55678V4.56923C3.14282 3.50119 3.48702 2.50961 4.19553 1.78718C4.89985 1.06903 6.01452 0.565674 7.65659 0.565674C8.34889 0.565674 8.95134 0.598878 9.3801 0.632041Z" fill="#1DA1F2" stroke="#1DA1F2"/>
</svg>
