<svg width="22" height="22" viewBox="0 0 22 22" fill="none" xmlns="http://www.w3.org/2000/svg">
<path d="M5.18764 3.34867V3.34845C5.18764 2.78168 4.96087 2.2385 4.55611 1.83708L5.18764 3.34867ZM5.18764 3.34867C5.18777 3.62948 5.13207 3.90752 5.02381 4.16661C4.91554 4.42571 4.75685 4.66071 4.55696 4.85794L4.55569 4.8592M5.18764 3.34867L4.55569 4.8592M4.55569 4.8592C4.14905 5.26334 3.59864 5.48955 3.02533 5.48816L3.02446 5.48816M4.55569 4.8592L3.02446 5.48816M3.02446 5.48816C2.45154 5.48778 1.90179 5.26199 1.49399 4.8596M3.02446 5.48816L1.49399 4.8596M3.02516 1.20874H3.02494C2.45201 1.20849 1.90215 1.43442 1.49491 1.83741L3.02516 1.20874ZM3.02516 1.20874C3.59947 1.20874 4.14988 1.43524 4.55607 1.83704L3.02516 1.20874ZM1.49399 4.8596C1.29478 4.6615 1.13658 4.42606 1.02843 4.16676C0.920226 3.90733 0.864251 3.62911 0.863709 3.34802C0.863823 2.78094 1.08986 2.23827 1.4949 1.83742L1.49399 4.8596ZM20.5673 13.9622V20.9123H17.4266V14.8783C17.4266 13.7106 17.2885 12.7165 16.9177 11.9984C16.7278 11.6307 16.4705 11.3231 16.1302 11.1096C15.7885 10.8954 15.3943 10.7955 14.9629 10.7955C13.8512 10.7955 12.996 11.2005 12.4397 11.9732C11.9044 12.7169 11.6948 13.7347 11.6948 14.8773V20.9123H8.55406V8.42291H11.3987V9.838L12.3454 10.0626C12.7994 9.1597 14.0261 8.24693 16.0063 8.24693C17.9646 8.24693 19.0405 8.76797 19.6643 9.63749C20.3194 10.5507 20.5673 11.9626 20.5673 13.9622ZM4.59448 8.24693V20.7364H1.45376V8.24693H4.59448Z" fill="#1DA1F2" stroke="#1DA1F2"/>
</svg>
