<svg width="56" height="56" viewBox="0 0 56 56" fill="none" xmlns="http://www.w3.org/2000/svg">
<g clip-path="url(#clip0_176_770)">
<path d="M55.3163 52.017L49.3897 46.0903C50.6123 44.2447 51.3333 42.0397 51.3333 39.6667C51.3333 33.2337 46.0997 28 39.6667 28C33.2337 28 28 33.2337 28 39.6667C28 46.0997 33.2337 51.3333 39.6667 51.3333C42.0397 51.3333 44.2447 50.6123 46.0903 49.3897L52.017 55.3163C52.9293 56.2287 54.404 56.2287 55.3163 55.3163C56.2287 54.404 56.2287 52.9293 55.3163 52.017ZM39.6667 46.6667C35.8073 46.6667 32.6667 43.526 32.6667 39.6667C32.6667 35.8073 35.8073 32.6667 39.6667 32.6667C43.526 32.6667 46.6667 35.8073 46.6667 39.6667C46.6667 43.526 43.526 46.6667 39.6667 46.6667Z" fill="#292071"/>
<path d="M44.3333 0H7C3.13367 0 0 3.13367 0 7C0 10.8663 3.13367 14 7 14H44.3333C48.1997 14 51.3333 10.8663 51.3333 7C51.3333 3.13367 48.1997 0 44.3333 0ZM7 9.33333C5.712 9.33333 4.66667 8.288 4.66667 7C4.66667 5.712 5.712 4.66667 7 4.66667C8.288 4.66667 9.33333 5.712 9.33333 7C9.33333 8.288 8.288 9.33333 7 9.33333ZM16.3333 9.33333C15.0453 9.33333 14 8.288 14 7C14 5.712 15.0453 4.66667 16.3333 4.66667C17.6213 4.66667 18.6667 5.712 18.6667 7C18.6667 8.288 17.6213 9.33333 16.3333 9.33333Z" fill="#292071"/>
<path d="M44.3333 18.6667H7C3.12667 18.6667 0 21.7933 0 25.6667C0 29.54 3.12667 32.6667 7 32.6667H24.92C27.5333 27.16 33.1567 23.3333 39.6667 23.3333C44.0533 23.3333 48.02 25.06 50.96 27.8833C51.2167 27.1833 51.3333 26.4367 51.3333 25.6667C51.3333 21.7933 48.2067 18.6667 44.3333 18.6667ZM7 28C5.71667 28 4.66667 26.95 4.66667 25.6667C4.66667 24.3833 5.71667 23.3333 7 23.3333C8.28333 23.3333 9.33333 24.3833 9.33333 25.6667C9.33333 26.95 8.28333 28 7 28ZM16.3333 28C15.05 28 14 26.95 14 25.6667C14 24.3833 15.05 23.3333 16.3333 23.3333C17.6167 23.3333 18.6667 24.3833 18.6667 25.6667C18.6667 26.95 17.6167 28 16.3333 28Z" fill="#292071"/>
<path d="M23.3333 39.6667C23.3333 38.8733 23.38 38.1033 23.52 37.3333H7C3.12667 37.3333 0 40.46 0 44.3333C0 48.2067 3.12667 51.3333 7 51.3333H28.2567C25.2233 48.37 23.3333 44.24 23.3333 39.6667ZM7 46.6667C5.71667 46.6667 4.66667 45.6167 4.66667 44.3333C4.66667 43.05 5.71667 42 7 42C8.28333 42 9.33333 43.05 9.33333 44.3333C9.33333 45.6167 8.28333 46.6667 7 46.6667ZM16.3333 46.6667C15.05 46.6667 14 45.6167 14 44.3333C14 43.05 15.05 42 16.3333 42C17.6167 42 18.6667 43.05 18.6667 44.3333C18.6667 45.6167 17.6167 46.6667 16.3333 46.6667Z" fill="#292071"/>
</g>
<defs>
<clipPath id="clip0_176_770">
<rect width="56" height="56" fill="white"/>
</clipPath>
</defs>
</svg>
