<svg width="18" height="18" viewBox="0 0 18 18" fill="none" xmlns="http://www.w3.org/2000/svg">
<path d="M7.71975 12.2197L6 13.9394V2.25C6 2.05109 5.92098 1.86032 5.78033 1.71967C5.63968 1.57902 5.44891 1.5 5.25 1.5C5.05109 1.5 4.86032 1.57902 4.71967 1.71967C4.57902 1.86032 4.5 2.05109 4.5 2.25V13.9394L2.78025 12.2197C2.6388 12.0831 2.44935 12.0075 2.2527 12.0092C2.05605 12.011 1.86794 12.0898 1.72889 12.2289C1.58983 12.3679 1.51095 12.5561 1.50924 12.7527C1.50754 12.9493 1.58313 13.1388 1.71975 13.2803L4.71975 16.2803C4.86053 16.4206 5.05123 16.4995 5.25004 16.4995C5.44885 16.4995 5.63955 16.4206 5.78033 16.2803L8.78033 13.2803C8.91744 13.1389 8.99346 12.9493 8.99195 12.7523C8.99045 12.5554 8.91154 12.367 8.77228 12.2277C8.63302 12.0885 8.44458 12.0096 8.24765 12.0081C8.05072 12.0066 7.8611 12.0826 7.71975 12.2197Z" fill="black"/>
<path d="M8.25 4.5H15.75C15.9489 4.5 16.1397 4.42098 16.2803 4.28033C16.421 4.13968 16.5 3.94891 16.5 3.75C16.5 3.55109 16.421 3.36032 16.2803 3.21967C16.1397 3.07902 15.9489 3 15.75 3H8.25C8.05109 3 7.86032 3.07902 7.71967 3.21967C7.57902 3.36032 7.5 3.55109 7.5 3.75C7.5 3.94891 7.57902 4.13968 7.71967 4.28033C7.86032 4.42098 8.05109 4.5 8.25 4.5Z" fill="black"/>
<path d="M15.75 6H8.25C8.05109 6 7.86032 6.07902 7.71967 6.21967C7.57902 6.36032 7.5 6.55109 7.5 6.75C7.5 6.94891 7.57902 7.13968 7.71967 7.28033C7.86032 7.42098 8.05109 7.5 8.25 7.5H15.75C15.9489 7.5 16.1397 7.42098 16.2803 7.28033C16.421 7.13968 16.5 6.94891 16.5 6.75C16.5 6.55109 16.421 6.36032 16.2803 6.21967C16.1397 6.07902 15.9489 6 15.75 6Z" fill="black"/>
<path d="M13.5 9H8.25C8.05109 9 7.86032 9.07902 7.71967 9.21967C7.57902 9.36032 7.5 9.55109 7.5 9.75C7.5 9.94891 7.57902 10.1397 7.71967 10.2803C7.86032 10.421 8.05109 10.5 8.25 10.5H13.5C13.6989 10.5 13.8897 10.421 14.0303 10.2803C14.171 10.1397 14.25 9.94891 14.25 9.75C14.25 9.55109 14.171 9.36032 14.0303 9.21967C13.8897 9.07902 13.6989 9 13.5 9Z" fill="black"/>
</svg>
