<svg width="56" height="56" viewBox="0 0 56 56" fill="none" xmlns="http://www.w3.org/2000/svg">
<g clip-path="url(#clip0_176_697)">
<path d="M44.7942 35.8085C39.0239 35.8085 34.328 40.3363 34.328 45.9025C34.328 51.4687 39.0227 56 44.7942 56C50.5657 56 55.2604 51.4698 55.2604 45.9037C55.2604 40.3375 50.5657 35.8085 44.7942 35.8085ZM51.4839 42.9835L43.9659 50.5015C43.736 50.7313 43.4327 50.8492 43.1282 50.8492C42.8458 50.8492 42.5623 50.7477 42.336 50.5458L38.1477 46.7857C37.6612 46.3482 37.6203 45.5992 38.0578 45.1115C38.4942 44.6227 39.2444 44.583 39.732 45.0217L43.0839 48.0305L49.8085 41.3058C50.2717 40.8427 51.0219 40.8427 51.485 41.3058C51.947 41.7702 51.947 42.5192 51.4839 42.9835Z" fill="#292071"/>
<path d="M39.319 13.594L15.3603 6.96733C14.7373 6.79583 14.077 7.16216 13.902 7.7945C13.727 8.4245 14.0968 9.07783 14.728 9.25283L38.6878 15.8807C38.7928 15.9087 38.9002 15.9227 39.004 15.9227C39.522 15.9227 40.0003 15.5797 40.1462 15.0535C40.3212 14.4223 39.9502 13.7702 39.319 13.594Z" fill="#292071"/>
<path d="M37.2844 19.3993L13.3268 12.7715C12.7015 12.6012 12.0435 12.9663 11.8685 13.5975C11.6935 14.2287 12.0633 14.882 12.6945 15.0558L36.6532 21.6837C36.7582 21.7128 36.8655 21.7268 36.9694 21.7268C37.4874 21.7268 37.9657 21.3827 38.1115 20.8577C38.2854 20.2265 37.9155 19.5732 37.2844 19.3993Z" fill="#292071"/>
<path d="M44.7942 33.439C45.7567 33.439 46.69 33.5498 47.5918 33.747V23.898H42.8272L46.6678 10.9562C46.7577 10.6517 46.7227 10.3238 46.5687 10.0462C46.4135 9.76733 46.1545 9.562 45.8477 9.478L11.7437 0.041998C11.1265 -0.126002 10.4767 0.226331 10.2923 0.845831L4.73668 19.4378C4.67134 19.6572 4.69118 19.8707 4.74601 20.0737H0.740845V48.2685H32.1965C32.0448 47.502 31.9573 46.7122 31.9573 45.9037C31.9573 39.0297 37.7148 33.439 44.7942 33.439ZM23.9972 23.8443L18.4975 20.0737H7.01984L12.2313 2.63666L44.0498 11.4403L40.5417 23.2633C40.4763 23.4803 40.4985 23.6927 40.551 23.8968H24.1652C24.1057 23.8968 24.0473 23.8793 23.9972 23.8443Z" fill="#292071"/>
</g>
<defs>
<clipPath id="clip0_176_697">
<rect width="56" height="56" fill="white"/>
</clipPath>
</defs>
</svg>
