<svg width="14" height="10" viewBox="0 0 14 10" fill="none" xmlns="http://www.w3.org/2000/svg">
<path fill-rule="evenodd" clip-rule="evenodd" d="M6.67572e-06 4.99998C6.67572e-06 5.13259 0.0526848 5.25976 0.146453 5.35353C0.240221 5.4473 0.367398 5.49998 0.500007 5.49998L12.293 5.49998L9.14601 8.64598C9.09952 8.69247 9.06264 8.74766 9.03748 8.8084C9.01232 8.86913 8.99937 8.93423 8.99937 8.99998C8.99937 9.06572 9.01232 9.13082 9.03748 9.19156C9.06264 9.2523 9.09952 9.30749 9.14601 9.35398C9.19249 9.40047 9.24768 9.43734 9.30842 9.4625C9.36916 9.48766 9.43426 9.50061 9.50001 9.50061C9.56575 9.50061 9.63085 9.48766 9.69159 9.4625C9.75233 9.43734 9.80752 9.40047 9.85401 9.35398L13.854 5.35398C13.9006 5.30753 13.9375 5.25236 13.9627 5.19161C13.9879 5.13087 14.0009 5.06575 14.0009 4.99998C14.0009 4.93421 13.9879 4.86909 13.9627 4.80835C13.9375 4.7476 13.9006 4.69242 13.854 4.64598L9.85401 0.645979C9.80752 0.599491 9.75233 0.562614 9.69159 0.537456C9.63085 0.512297 9.56575 0.499348 9.50001 0.499348C9.43426 0.499348 9.36916 0.512297 9.30842 0.537456C9.24768 0.562614 9.19249 0.599491 9.14601 0.645979C9.09952 0.692467 9.06264 0.747656 9.03748 0.808395C9.01232 0.869135 8.99937 0.934236 8.99937 0.999979C8.99937 1.06572 9.01232 1.13082 9.03748 1.19156C9.06264 1.2523 9.09952 1.30749 9.14601 1.35398L12.293 4.49998L0.500007 4.49998C0.367398 4.49998 0.240221 4.55266 0.146453 4.64643C0.0526848 4.74019 6.67572e-06 4.86737 6.67572e-06 4.99998Z" fill="#0F0F0F"/>
</svg>
