<svg width="14" height="12" viewBox="0 0 14 12" fill="none" xmlns="http://www.w3.org/2000/svg">
<path d="M12.6004 2.1267L12.6008 2.12722C13.0406 2.70349 13.2809 3.43309 13.2809 4.24848C13.2809 5.36721 12.6078 6.69122 11.0948 8.18939C9.86962 9.40252 8.41191 10.4037 7.64686 10.8955C7.45379 11.0191 7.22939 11.0847 7.00019 11.0847C6.77097 11.0847 6.54655 11.0191 6.35348 10.8955C5.58808 10.4039 4.13092 9.40265 2.90566 8.18947C1.3925 6.69056 0.719482 5.36717 0.719482 4.24848C0.719482 3.43309 0.959805 2.70349 1.39961 2.12722L1.4 2.1267C1.81765 1.57796 2.40763 1.18554 3.07516 1.01248C3.74268 0.839412 4.449 0.895747 5.08066 1.17243L5.08065 1.17245L5.08408 1.17392C5.65111 1.41727 6.17017 1.83551 6.59967 2.41024L6.9997 2.94552L7.40035 2.41071C7.82993 1.83729 8.34936 1.41857 8.91722 1.17352L8.91722 1.17353L8.91972 1.17243C9.55138 0.895747 10.2577 0.839412 10.9252 1.01248C11.5927 1.18554 12.1827 1.57796 12.6004 2.1267ZM13.7809 4.24848C13.7809 3.33332 13.5103 2.49481 12.9982 1.82387L11.4466 8.54469C12.9955 7.01104 13.7809 5.56552 13.7809 4.24848Z" stroke="#0F0F0F"/>
</svg>
