<svg width="157" height="122" viewBox="0 0 157 122" fill="none" xmlns="http://www.w3.org/2000/svg">
<path opacity="0.05" d="M157 44.1902C157 84.9542 124.16 118 83.6509 118C43.1413 118 0 80.393 0 39.6289C0 -1.13519 34.8999 34.2383 75.4094 34.2383C115.919 34.2383 157 3.42609 157 44.1902Z" fill="#C9009D"/>
<g clip-path="url(#clip0_174_370)">
<path d="M82.4204 22.1578C81.4394 22.0475 80.5549 22.7531 80.4446 23.7336C80.3342 24.7143 81.0398 25.5991 82.0205 25.7094C99.9753 27.7314 113.515 42.9029 113.515 60.9997C113.515 80.5829 97.5828 96.5149 77.9996 96.5149C58.4164 96.5149 42.4843 80.5829 42.4843 60.9997C42.4843 42.9265 56.0043 27.7572 73.9329 25.7146C74.9134 25.6029 75.618 24.7174 75.5062 23.7367C75.3945 22.7559 74.51 22.0504 73.5283 22.1633C53.7928 24.412 38.9102 41.1077 38.9102 60.9997C38.9102 82.5537 56.4456 100.089 77.9996 100.089C99.5536 100.089 117.089 82.5537 117.089 60.9997C117.089 41.082 102.185 24.3836 82.4204 22.1578Z" fill="#292071"/>
<path d="M121.93 76.9389C121.065 74.1753 121.883 71.1227 124.014 69.1617C126.289 67.0675 127.595 64.0925 127.595 60.9999C127.595 57.9073 126.289 54.9324 124.014 52.8382C121.883 50.8774 121.065 47.8245 121.93 45.061C122.854 42.1094 122.496 38.8805 120.95 36.2022C119.404 33.524 116.786 31.6001 113.768 30.9244C110.943 30.2915 108.708 28.0567 108.075 25.2312C107.399 22.2134 105.475 19.5956 102.797 18.0492C100.119 16.5028 96.89 16.1456 93.9384 17.0694C91.1748 17.9341 88.1222 17.1161 86.1612 14.9856C84.067 12.7101 81.0921 11.4048 77.9994 11.4048C74.9068 11.4048 71.9319 12.7101 69.8377 14.9854C67.8769 17.1161 64.8245 17.9341 62.0605 17.0694C59.1089 16.1458 55.88 16.5028 53.2017 18.0492C50.5235 19.5954 48.5996 22.2134 47.9239 25.2312C47.291 28.0567 45.0562 30.2915 42.2307 30.9244C39.2129 31.6001 36.5951 33.524 35.0487 36.2022C33.5023 38.8805 33.1453 42.1094 34.0689 45.061C34.9336 47.8245 34.1156 50.8771 31.9852 52.8382C29.7096 54.9324 28.4043 57.9073 28.4043 60.9999C28.4043 64.0925 29.7096 67.0675 31.9849 69.1617C34.1156 71.1225 34.9336 74.1753 34.0689 76.9389C33.1453 79.8904 33.5025 83.1194 35.0487 85.7976C36.5949 88.4759 39.2129 90.3997 42.2307 91.0755C45.0562 91.7084 47.291 93.9432 47.9239 96.7687C48.5996 99.7865 50.5235 102.404 53.2017 103.951C55.8802 105.497 59.1089 105.854 62.0605 104.93C64.8248 104.066 67.8769 104.884 69.8377 107.014C71.9319 109.29 74.9068 110.595 77.9994 110.595C81.0921 110.595 84.067 109.29 86.1612 107.014C88.1222 104.884 91.1751 104.066 93.9384 104.93C96.8895 105.854 100.119 105.497 102.797 103.951C105.475 102.404 107.399 99.7865 108.075 96.7687C108.708 93.9432 110.943 91.7084 113.768 91.0755C116.786 90.3997 119.404 88.4759 120.95 85.7976C122.497 83.1194 122.854 79.8904 121.93 76.9389ZM118.519 78.0064C119.154 80.0363 118.918 82.1686 117.855 84.0105C116.791 85.8524 115.063 87.1229 112.987 87.5878C108.818 88.5216 105.521 91.8187 104.587 95.9876C104.122 98.063 102.852 99.7917 101.01 100.855C99.1679 101.919 97.0355 102.155 95.0059 101.519C90.9282 100.243 86.4245 101.45 83.5316 104.594C82.0912 106.159 80.1265 107.021 77.9997 107.021C75.8728 107.021 73.9082 106.159 72.4678 104.594C70.3402 102.282 67.3417 101.018 64.2824 101.018C63.1813 101.018 62.0724 101.182 60.9935 101.519C58.9638 102.154 56.8312 101.919 54.9893 100.855C53.1474 99.792 51.8769 98.0633 51.412 95.9876C50.4782 91.8187 47.1812 88.5216 43.0122 87.5878C40.9368 87.1229 39.2081 85.8526 38.1444 84.0105C37.081 82.1686 36.8451 80.0363 37.4803 78.0064C38.7561 73.9292 37.5494 69.4252 34.4058 66.532C32.8408 65.0916 31.9787 63.127 31.9787 61.0002C31.9787 58.8733 32.8406 56.9087 34.4058 55.4683C37.5492 52.5751 38.7561 48.0711 37.4803 43.994C36.8451 41.9641 37.081 39.8317 38.1444 37.9898C39.2079 36.1479 40.9366 34.8774 43.0122 34.4125C47.1812 33.4787 50.4782 30.1816 51.412 26.0127C51.8769 23.9373 53.1472 22.2086 54.9893 21.1449C56.8315 20.0812 58.964 19.8456 60.9935 20.4808C65.0704 21.7566 69.5746 20.5497 72.4678 17.4063C73.9082 15.8413 75.8728 14.9792 77.9997 14.9792C80.1265 14.9792 82.0912 15.8411 83.5316 17.4063C86.425 20.5497 90.9287 21.7566 95.0059 20.4808C97.0353 19.8456 99.1679 20.0812 101.01 21.1449C102.852 22.2084 104.122 23.9371 104.587 26.0127C105.521 30.1816 108.818 33.4787 112.987 34.4125C115.063 34.8774 116.791 36.1477 117.855 37.9898C118.918 39.8317 119.154 41.9641 118.519 43.994C117.243 48.0711 118.45 52.5751 121.594 55.4683C123.159 56.9087 124.021 58.8733 124.021 61.0002C124.021 63.127 123.159 65.0916 121.594 66.532C118.45 69.4252 117.243 73.9292 118.519 78.0064Z" fill="#292071"/>
<path d="M121.768 18.5225C122.225 18.5225 122.682 18.3481 123.031 17.999L137.979 3.05114C138.677 2.35322 138.677 1.22162 137.979 0.523933C137.281 -0.173993 136.149 -0.173993 135.452 0.523933L120.504 15.4718C119.806 16.1697 119.806 17.3013 120.504 17.999C120.853 18.3478 121.31 18.5225 121.768 18.5225Z" fill="#292071"/>
<path d="M138.439 25.0203C138.18 24.0681 137.198 23.5067 136.245 23.7667L128.771 25.8056C127.819 26.0654 127.258 27.0478 127.518 28C127.734 28.7946 128.455 29.3172 129.241 29.3172C129.396 29.3172 129.555 29.2967 129.712 29.2536L137.186 27.2146C138.138 26.9551 138.699 25.9724 138.439 25.0203Z" fill="#292071"/>
<path d="M110.343 10.9856C110.501 11.0287 110.659 11.0492 110.815 11.0492C111.601 11.0492 112.321 10.5266 112.538 9.73196L114.577 2.25803C114.837 1.30586 114.275 0.323186 113.323 0.0636978C112.371 -0.196744 111.389 0.365124 111.129 1.3173L109.09 8.79123C108.83 9.7434 109.391 10.7258 110.343 10.9856Z" fill="#292071"/>
<path d="M32.9684 17.9995C33.3172 18.3483 33.7747 18.523 34.232 18.523C34.6892 18.523 35.1467 18.3486 35.4956 17.9995C36.1935 17.3016 36.1935 16.17 35.4956 15.4723L20.5477 0.524421C19.8498 -0.173505 18.7182 -0.173505 18.0205 0.524421C17.3226 1.22235 17.3226 2.35394 18.0205 3.05163L32.9684 17.9995Z" fill="#292071"/>
<path d="M27.2278 25.8052L19.7539 23.7663C18.8017 23.506 17.819 24.0677 17.5595 25.0199C17.2998 25.972 17.861 26.9547 18.8131 27.2142L26.2871 29.2532C26.4446 29.2963 26.6028 29.3168 26.7586 29.3168C27.5445 29.3168 28.2648 28.7942 28.4816 27.9996C28.7411 27.0474 28.18 26.065 27.2278 25.8052Z" fill="#292071"/>
<path d="M43.4616 9.73186C43.6785 10.5265 44.3988 11.0491 45.1847 11.0491C45.3403 11.0491 45.4987 11.0286 45.6562 10.9855C46.6084 10.7257 47.1698 9.7433 46.9098 8.79113L44.8708 1.3172C44.6111 0.365263 43.6296 -0.196604 42.6765 0.063599C41.7243 0.323326 41.1629 1.30576 41.4229 2.25793L43.4616 9.73186Z" fill="#292071"/>
<path d="M123.031 104.001C122.333 103.303 121.202 103.303 120.504 104.001C119.806 104.699 119.806 105.831 120.504 106.528L135.452 121.476C135.801 121.825 136.258 122 136.715 122C137.173 122 137.63 121.825 137.979 121.476C138.677 120.778 138.677 119.647 137.979 118.949L123.031 104.001Z" fill="#292071"/>
<path d="M137.186 94.7851L129.712 92.7461C128.759 92.4862 127.777 93.0476 127.518 93.9998C127.258 94.9519 127.819 95.9346 128.771 96.1941L136.245 98.2331C136.403 98.2762 136.561 98.2967 136.717 98.2967C137.502 98.2967 138.223 97.7741 138.44 96.9795C138.699 96.0273 138.138 95.0449 137.186 94.7851Z" fill="#292071"/>
<path d="M112.538 112.268C112.278 111.316 111.296 110.754 110.344 111.014C109.391 111.274 108.83 112.256 109.09 113.209L111.129 120.683C111.346 121.477 112.066 122 112.852 122C113.007 122 113.166 121.979 113.323 121.936C114.276 121.676 114.837 120.694 114.577 119.742L112.538 112.268Z" fill="#292071"/>
<path d="M32.9684 104.001L18.0205 118.949C17.3226 119.647 17.3226 120.778 18.0205 121.476C18.3694 121.825 18.8269 122 19.2841 122C19.7414 122 20.1989 121.825 20.5477 121.476L35.4956 106.528C36.1935 105.83 36.1935 104.699 35.4956 104.001C34.7977 103.303 33.6661 103.303 32.9684 104.001Z" fill="#292071"/>
<path d="M26.2872 92.7463L18.8132 94.7853C17.8611 95.045 17.2997 96.0275 17.5596 96.9796C17.7765 97.7743 18.4968 98.2968 19.2826 98.2968C19.4382 98.2968 19.5967 98.2763 19.7542 98.2332L27.2281 96.1942C28.1803 95.9345 28.7417 94.9521 28.4817 93.9999C28.2222 93.0477 27.2398 92.4859 26.2872 92.7463Z" fill="#292071"/>
<path d="M45.6552 111.014C44.703 110.754 43.7205 111.316 43.4608 112.268L41.4218 119.742C41.1621 120.694 41.7233 121.677 42.6754 121.936C42.833 121.979 42.9912 122 43.147 122C43.9329 122 44.6532 121.477 44.87 120.682L46.909 113.209C47.1687 112.257 46.6073 111.274 45.6552 111.014Z" fill="#292071"/>
<path d="M85.6938 66.7827C84.9959 67.4807 84.9959 68.6123 85.6938 69.3099C86.3917 70.0079 87.5233 70.0079 88.221 69.3099L102.885 54.646C103.931 53.6002 104.507 52.2101 104.507 50.7311C104.507 49.2521 103.931 47.862 102.885 46.8164L98.2764 42.2076C96.1176 40.0493 92.6053 40.0493 90.4468 42.2076L72.277 60.3773L65.9202 54.0203C64.8744 52.9745 63.4843 52.3986 62.0053 52.3986C60.5263 52.3986 59.1362 52.9745 58.0904 54.0203L53.1149 58.9958C52.0691 60.0416 51.4932 61.4317 51.4932 62.9107C51.4932 64.3897 52.0691 65.7798 53.1149 66.8254L65.8626 79.5733C67.5298 81.2406 69.7198 82.0743 71.9099 82.0743C74.0999 82.0743 76.2899 81.2406 77.9571 79.5733L82.3515 75.179C83.0494 74.4811 83.0494 73.3495 82.3515 72.6518C81.6536 71.9539 80.522 71.9539 79.8243 72.6518L75.4299 77.0461C73.4889 78.9869 70.3305 78.9869 68.3898 77.0461L55.6421 64.2982C55.2713 63.9277 55.0673 63.4349 55.0673 62.911C55.0673 62.3867 55.2716 61.894 55.6421 61.5235L60.6176 56.548C60.9883 56.1774 61.4811 55.9732 62.0051 55.9732C62.5291 55.9732 63.0218 56.1772 63.3926 56.548L71.0132 64.1686C71.7111 64.8665 72.8427 64.8665 73.5404 64.1686L92.9739 44.7353C93.7388 43.9704 94.9838 43.9702 95.7489 44.7353L100.357 49.3441C100.728 49.7146 100.932 50.2074 100.932 50.7313C100.932 51.2553 100.728 51.7483 100.357 52.1188L85.6938 66.7827Z" fill="#292071"/>
</g>
<defs>
<clipPath id="clip0_174_370">
<rect width="122" height="122" fill="white" transform="translate(17)"/>
</clipPath>
</defs>
</svg>
