<svg width="23" height="22" viewBox="0 0 23 22" fill="none" xmlns="http://www.w3.org/2000/svg">
<path d="M5.56069 7.49141C5.39311 7.32383 5.12069 7.32383 4.95315 7.49141C4.78515 7.65941 4.78515 7.93141 4.95315 8.09898C5.12073 8.26699 5.39315 8.26699 5.56069 8.09898C5.72865 7.93141 5.72865 7.65941 5.56069 7.49141Z" fill="white"/>
<path d="M11.3796 19.2379C11.5691 18.9813 11.6715 18.6722 11.6715 18.3471C11.6715 17.5179 10.9969 16.8432 10.1676 16.8432H2.8632C2.46131 16.8432 2.08366 16.9996 1.79976 17.2836C1.51574 17.5676 1.35933 17.9452 1.35933 18.3471C1.35933 18.6801 1.4683 18.988 1.65216 19.2374C0.967973 19.5971 0.5 20.3147 0.5 21.1399V21.5696C0.5 21.8069 0.692414 21.9993 0.929688 21.9993H12.1011C12.3384 21.9993 12.5308 21.8069 12.5308 21.5696V21.1399C12.5308 20.3151 12.0633 19.5978 11.3796 19.2379ZM2.40738 17.8912C2.52903 17.7695 2.69093 17.7025 2.8632 17.7025H10.1676C10.523 17.7025 10.8121 17.9917 10.8121 18.347C10.8121 18.5193 10.7451 18.6812 10.6234 18.8029C10.5017 18.9246 10.3398 18.9915 10.1676 18.9915H2.8632C2.5078 18.9915 2.21871 18.7024 2.21871 18.3471C2.21871 18.1748 2.2857 18.0129 2.40738 17.8912ZM1.35933 21.1399C1.35933 20.4292 1.93761 19.8509 2.64835 19.8509H2.8632H10.1676H10.3825C11.0932 19.8509 11.6715 20.4292 11.6715 21.1399H1.35933Z" fill="white"/>
<path d="M22.1002 18.0522C21.9542 17.8261 21.7801 17.6261 21.5826 17.4578L19.5749 15.7067C19.5592 15.6832 19.5411 15.6608 19.5204 15.6401C19.4855 15.6052 19.4459 15.578 19.4039 15.5577L18.1897 14.4987L12.5699 9.59636C12.7999 9.35586 12.9266 9.04137 12.9266 8.70695C12.9266 8.36242 12.7925 8.03865 12.5487 7.79494C12.4424 7.68876 12.3216 7.60527 12.1925 7.54413L12.7124 7.02421C12.8577 7.06283 13.007 7.0826 13.1565 7.0826C13.5965 7.08256 14.0366 6.91506 14.3716 6.58008C14.6963 6.25537 14.8752 5.82374 14.8752 5.36471C14.8752 4.90567 14.6963 4.47405 14.3716 4.14934L10.7258 0.503612C10.4011 0.178897 9.96944 6.10352e-05 9.51028 6.10352e-05C9.05133 6.10352e-05 8.61979 0.178897 8.29512 0.503612C7.84635 0.952377 7.69863 1.58956 7.851 2.16285L2.66359 7.35021C2.52025 7.3121 2.37111 7.29199 2.21874 7.29199C1.75949 7.29199 1.32804 7.47069 1.00358 7.79511C0.333441 8.46525 0.333441 9.55567 1.00358 10.2259L4.64935 13.8717C4.98446 14.2067 5.42459 14.3743 5.86472 14.3743C6.30489 14.3743 6.74502 14.2067 7.08014 13.8717C7.5289 13.4229 7.67663 12.7857 7.52426 12.2124L8.04311 11.6935C8.10546 11.8237 8.19006 11.9439 8.29516 12.0489C8.53862 12.2924 8.86231 12.4265 9.20675 12.4265C9.54083 12.4265 9.85519 12.3 10.096 12.0702L16.0818 18.9476C16.0983 18.9733 16.1176 18.9979 16.1401 19.0204C16.1478 19.0281 16.156 19.0351 16.1641 19.042L17.9477 21.0914C17.9921 21.1437 18.0395 21.1952 18.0887 21.2444C18.5786 21.7341 19.2256 21.9999 19.905 21.9999C20.0247 21.9999 20.1456 21.9916 20.2666 21.9749C21.0757 21.8629 21.7749 21.3789 22.1849 20.6468C22.6341 19.8444 22.6007 18.8258 22.1002 18.0522ZM8.90283 1.11128C9.06521 0.948897 9.281 0.859436 9.51032 0.859436C9.73994 0.859436 9.95586 0.948897 10.1182 1.11128L13.764 4.75705C13.9264 4.91942 14.0158 5.13526 14.0158 5.36475C14.0158 5.59425 13.9264 5.81008 13.764 5.97246C13.429 6.30749 12.8839 6.30749 12.549 5.97246L8.90304 2.32652C8.90296 2.32643 8.90291 2.32639 8.90283 2.3263C8.5678 1.99132 8.5678 1.44626 8.90283 1.11128ZM6.47247 13.264C6.1374 13.5991 5.59209 13.5991 5.25702 13.264L1.61125 9.61823C1.27613 9.28312 1.27613 8.73793 1.61125 8.40277C1.77332 8.24065 1.98911 8.15136 2.21874 8.15136C2.44832 8.15136 2.66398 8.24061 2.82602 8.4026L6.47243 12.049C6.8075 12.384 6.8075 12.9291 6.47247 13.264ZM8.28154 10.2399L7.08009 11.4413L3.43394 7.79519L8.29512 2.93392L11.9412 6.58008L10.7376 7.78376C10.7337 7.78746 10.7299 7.79107 10.7257 7.79515L8.29637 10.2246C8.29134 10.2295 8.28648 10.2347 8.28154 10.2399ZM9.81578 11.1362C9.81493 11.1371 9.81411 11.1379 9.81325 11.1388L9.51066 11.4413C9.4295 11.5225 9.3216 11.5672 9.2067 11.5672C9.09185 11.5672 8.98391 11.5225 8.90278 11.4413C8.82153 11.3601 8.7768 11.2521 8.7768 11.1371C8.7768 11.0246 8.81973 10.9188 8.89763 10.839L11.3383 8.3983C11.5056 8.23562 11.776 8.23764 11.9413 8.40277C12.0225 8.48398 12.0673 8.59201 12.0673 8.70695C12.0673 8.8218 12.0227 8.92953 11.9413 9.01069L11.6405 9.31152C11.6384 9.31354 11.6363 9.3156 11.6343 9.31766L9.81578 11.1362ZM10.7056 11.4617L11.9614 10.2059L17.2784 14.8437L15.3382 16.784L10.7056 11.4617ZM15.9037 17.4338L17.9275 15.4099L18.5766 15.9761L16.4692 18.0836L15.9037 17.4338ZM21.4352 20.227C21.1579 20.7221 20.689 21.0489 20.1489 21.1237C19.61 21.1983 19.0804 21.0208 18.6962 20.6367C18.6632 20.6037 18.6316 20.5693 18.6021 20.5344C18.6007 20.5328 18.5993 20.5311 18.5979 20.5295L17.0347 18.7334L19.2257 16.5423L21.0197 18.1071C21.021 18.1083 21.0224 18.1095 21.0238 18.1107C21.1581 18.2248 21.2772 18.3619 21.3783 18.5186C21.7033 19.0207 21.726 19.7073 21.4352 20.227Z" fill="white"/>
<path d="M8.59907 4.45312C8.43123 4.28532 8.15924 4.28532 7.9914 4.45312L6.16833 6.27619C6.00053 6.44399 6.00053 6.71606 6.16833 6.88381C6.25224 6.96773 6.3622 7.00967 6.47216 7.00967C6.58211 7.00967 6.69207 6.96769 6.77599 6.88381L8.59907 5.06074C8.76686 4.89299 8.76686 4.62095 8.59907 4.45312Z" fill="white"/>
</svg>
