<svg width="32" height="32" viewBox="0 0 32 32" fill="none" xmlns="http://www.w3.org/2000/svg">
<path d="M15.8249 27.9824C16.1005 27.6091 16.2494 27.1595 16.2494 26.6866C16.2494 25.4805 15.2682 24.4992 14.062 24.4992H3.43738C2.85281 24.4992 2.3035 24.7267 1.89056 25.1398C1.47744 25.5528 1.24994 26.1021 1.24994 26.6866C1.24994 27.171 1.40844 27.6188 1.67587 27.9816C0.680687 28.5049 0 29.5486 0 30.749V31.374C0 31.7191 0.279875 31.999 0.625 31.999H16.8744C17.2195 31.999 17.4994 31.7191 17.4994 31.374V30.749C17.4994 29.5492 16.8194 28.5059 15.8249 27.9824ZM2.77437 26.0235C2.95131 25.8465 3.18681 25.7491 3.43738 25.7491H14.062C14.5789 25.7491 14.9994 26.1696 14.9994 26.6865C14.9994 26.9371 14.9019 27.1726 14.7249 27.3496C14.548 27.5266 14.3125 27.624 14.0619 27.624H3.43738C2.92044 27.624 2.49994 27.2035 2.49994 26.6866C2.49994 26.436 2.59737 26.2005 2.77437 26.0235ZM1.24994 30.749C1.24994 29.7151 2.09106 28.874 3.12488 28.874H3.43738H14.062H14.3745C15.4083 28.874 16.2494 29.7151 16.2494 30.749H1.24994Z" fill="#292071"/>
<path d="M31.4183 26.2577C31.2061 25.9288 30.9528 25.6379 30.6655 25.3932L27.7452 22.8461C27.7224 22.8119 27.6961 22.7794 27.6659 22.7492C27.6151 22.6985 27.5576 22.6589 27.4965 22.6293L25.7304 21.089L17.5561 13.9583C17.8907 13.6085 18.0749 13.1511 18.0749 12.6646C18.0749 12.1635 17.8799 11.6926 17.5253 11.3381C17.3707 11.1836 17.1949 11.0622 17.0071 10.9732L17.7634 10.217C17.9747 10.2732 18.1919 10.3019 18.4093 10.3019C19.0494 10.3019 19.6895 10.0582 20.1767 9.571C20.6491 9.09869 20.9092 8.47087 20.9092 7.80319C20.9092 7.1355 20.6491 6.50769 20.1768 6.03537L14.8738 0.732499C14.4015 0.260186 13.7736 6.10352e-05 13.1057 6.10352e-05C12.4382 6.10352e-05 11.8105 0.260186 11.3382 0.732499C10.6855 1.38525 10.4706 2.31206 10.6922 3.14594L3.14694 10.6912C2.93844 10.6357 2.7215 10.6065 2.49987 10.6065C1.83187 10.6065 1.20431 10.8664 0.732375 11.3383C-0.242375 12.3131 -0.242375 13.8991 0.732375 14.8739L6.03531 20.1769C6.52275 20.6643 7.16294 20.908 7.80312 20.908C8.44337 20.908 9.08356 20.6643 9.571 20.1769C10.2237 19.5241 10.4386 18.5974 10.217 17.7635L10.9717 17.0087C11.0624 17.1981 11.1854 17.3729 11.3383 17.5257C11.6924 17.8798 12.1632 18.0749 12.6642 18.0749C13.1502 18.0749 13.6074 17.8909 13.9577 17.5567L22.6644 27.5601C22.6884 27.5976 22.7164 27.6332 22.7491 27.666C22.7603 27.6772 22.7722 27.6874 22.784 27.6975L25.3784 30.6784C25.4429 30.7545 25.5119 30.8294 25.5834 30.9009C26.296 31.6132 27.2372 31.9998 28.2253 31.9998C28.3995 31.9998 28.5753 31.9878 28.7514 31.9634C29.9282 31.8006 30.9452 31.0966 31.5416 30.0317C32.1949 28.8646 32.1463 27.3829 31.4183 26.2577ZM12.2222 1.61637C12.4584 1.38019 12.7722 1.25006 13.1058 1.25006C13.4398 1.25006 13.7539 1.38019 13.99 1.61637L19.293 6.91931C19.5292 7.1555 19.6592 7.46944 19.6592 7.80325C19.6592 8.13706 19.5292 8.451 19.2929 8.68719C18.8057 9.1745 18.0129 9.1745 17.5257 8.68719L12.2225 3.384C12.2224 3.38387 12.2223 3.38381 12.2222 3.38369C11.7349 2.89644 11.7349 2.10362 12.2222 1.61637ZM8.68712 19.2931C8.19975 19.7804 7.40656 19.7805 6.91919 19.2931L1.61625 13.9901C1.12881 13.5027 1.12881 12.7097 1.61625 12.2222C1.852 11.9864 2.16587 11.8565 2.49987 11.8565C2.83381 11.8565 3.1475 11.9863 3.38319 12.2219L8.68706 17.5258C9.17444 18.013 9.17444 18.8059 8.68712 19.2931ZM11.3185 14.8943L9.57094 16.6419L4.26744 11.3384L11.3382 4.2675L16.6417 9.571L14.8909 11.3218C14.8852 11.3272 14.8797 11.3324 14.8737 11.3384L11.3401 14.8721C11.3327 14.8792 11.3257 14.8867 11.3185 14.8943ZM13.5501 16.1981C13.5489 16.1994 13.5477 16.2006 13.5464 16.2018L13.1063 16.6419C12.9882 16.7599 12.8313 16.8249 12.6642 16.8249C12.4971 16.8249 12.3401 16.7599 12.2221 16.6419C12.1039 16.5237 12.0389 16.3666 12.0389 16.1994C12.0389 16.0358 12.1013 15.8819 12.2146 15.7657L15.7647 12.2157C16.008 11.9791 16.4014 11.982 16.6418 12.2222C16.7599 12.3403 16.825 12.4974 16.825 12.6646C16.825 12.8317 16.7601 12.9884 16.6417 13.1064L16.2042 13.544C16.2012 13.5469 16.1982 13.5499 16.1952 13.5529L13.5501 16.1981ZM14.8444 16.6716L16.671 14.8449L24.4049 21.5909L21.5827 24.4131L14.8444 16.6716ZM22.4053 25.3582L25.349 22.4144L26.2932 23.238L23.2279 26.3034L22.4053 25.3582ZM30.4511 29.4211C30.0477 30.1412 29.3657 30.6166 28.5801 30.7253C27.7962 30.8338 27.026 30.5756 26.4671 30.017C26.4191 29.969 26.3731 29.9189 26.3302 29.8682C26.3282 29.8658 26.3262 29.8634 26.3241 29.8611L24.0504 27.2485L27.2373 24.0615L29.8467 26.3376C29.8486 26.3393 29.8506 26.341 29.8527 26.3427C30.048 26.5088 30.2213 26.7082 30.3684 26.9361C30.841 27.6664 30.8741 28.6652 30.4511 29.4211Z" fill="#292071"/>
</svg>
