<svg width="20" height="16" viewBox="0 0 20 16" fill="none" xmlns="http://www.w3.org/2000/svg">
<path d="M17.9075 2.52104L17.9071 2.52052C17.3027 1.72642 16.4489 1.15852 15.4829 0.908072C14.5169 0.657619 13.4948 0.739145 12.5807 1.13955L12.5782 1.14065L12.5781 1.14064C11.7575 1.49478 11.0126 2.09743 10.4002 2.91494L9.99951 3.44975L9.59948 2.91447C8.98712 2.09506 8.2426 1.49289 7.42277 1.14103L7.41934 1.13956L7.41935 1.13955C6.50525 0.739145 5.48309 0.657619 4.51707 0.908072C3.55106 1.15852 2.69727 1.72642 2.09287 2.52052L2.09247 2.52104C1.45573 3.35536 1.11133 4.40746 1.11133 5.57484C1.11133 7.20007 2.08642 9.07916 4.19524 11.1681L17.9075 2.52104ZM17.9075 2.52104C18.5443 3.35536 18.8887 4.40746 18.8887 5.57484C18.8887 7.20012 17.9135 9.0801 15.8048 11.1681C14.0941 12.862 12.0623 14.257 10.9989 14.9405C10.7007 15.1313 10.354 15.2327 10 15.2327C9.64595 15.2327 9.29931 15.1313 9.00106 14.9405M17.9075 2.52104L9.00106 14.9405M9.00106 14.9405C7.9371 14.2571 5.90613 12.8622 4.19531 11.1682L9.00106 14.9405Z" stroke="#848484"/>
</svg>
