<svg width="36" height="36" viewBox="0 0 36 36" fill="none" xmlns="http://www.w3.org/2000/svg">
<g clip-path="url(#clip0_201_984)">
<path d="M18 6.55994C17.0141 6.55994 16.0652 6.85652 15.256 7.41761C15.0168 7.58348 14.9563 7.91331 15.1209 8.15434C15.2856 8.39537 15.613 8.45626 15.8522 8.29047C16.4853 7.85151 17.2279 7.61948 18 7.61948C20.092 7.61948 21.794 9.33426 21.794 11.442C21.794 13.5498 20.092 15.2646 18 15.2646C15.9079 15.2646 14.2059 13.5498 14.2059 11.442C14.2059 10.8202 14.3492 10.2275 14.6318 9.68033C14.7658 9.42074 14.6657 9.10089 14.408 8.96589C14.1503 8.83096 13.833 8.93172 13.6989 9.19131C13.3427 9.88122 13.1543 10.6595 13.1543 11.442C13.1544 14.1341 15.3281 16.3242 18 16.3242C20.6718 16.3242 22.8455 14.1341 22.8455 11.442C22.8455 8.75003 20.6718 6.55994 18 6.55994Z" fill="#1DA1F2"/>
<path d="M35.9596 35.2667L30.7703 22.7043C30.6887 22.5068 30.4972 22.3781 30.2849 22.3781H25.1136C26.1194 21.0072 26.9567 19.6417 27.6105 18.3009C28.7692 15.9247 29.3567 13.6171 29.3567 11.4421C29.3566 5.13288 24.2621 0 18 0C11.7379 0 6.6433 5.13288 6.6433 11.442C6.6433 13.6171 7.23076 15.9247 8.38951 18.3008C9.04328 19.6416 9.88049 21.0072 10.8864 22.3781H5.7151C5.50276 22.3781 5.31123 22.5068 5.22974 22.7043L1.69358 31.2645C1.58199 31.5347 1.70884 31.8447 1.97694 31.9571C2.04303 31.9848 2.11138 31.998 2.17874 31.998C2.38475 31.998 2.58029 31.8752 2.66432 31.6716L3.16888 30.4502H6.74821L4.89336 34.9405H1.3141L1.85178 33.6388C1.96337 33.3686 1.83653 33.0585 1.56842 32.9462C1.30018 32.8336 0.992495 32.9616 0.880979 33.2317L0.0403932 35.2667C-0.0271771 35.4302 -0.00917714 35.6169 0.0884166 35.7642C0.18587 35.9115 0.349979 36 0.52576 36H35.4742C35.6499 36 35.8141 35.9115 35.9116 35.7642C36.0091 35.6169 36.0272 35.4302 35.9596 35.2667ZM7.69489 11.442C7.69489 5.71704 12.3177 1.05947 18 1.05947C23.6822 1.05947 28.305 5.71711 28.305 11.442C28.305 13.8427 27.4771 17.679 23.6472 22.5676C23.6433 22.5722 23.6399 22.5771 23.6362 22.5818C23.4406 22.8312 23.2374 23.0832 23.0258 23.3381C20.9212 25.8737 18.7915 27.7253 17.9999 28.3831C17.2106 27.7275 15.0909 25.8853 12.9878 23.3545C12.771 23.0936 12.563 22.8356 12.3628 22.5804C12.3596 22.5763 12.3565 22.5721 12.3532 22.5681C8.52339 17.6797 7.69489 13.8436 7.69489 11.442ZM6.06575 23.4376H9.64515L8.33959 26.598H4.76026L6.06575 23.4376ZM9.14038 34.9405L12.4269 26.9848L21.7794 34.9405H9.14038ZM23.4095 34.9405L12.5566 25.7085C12.4285 25.5994 12.2563 25.5586 12.0936 25.5984C11.9308 25.6381 11.7964 25.7538 11.732 25.9097L8.00146 34.9405H6.03242L8.02199 30.1239C8.08956 29.9604 8.07156 29.7738 7.97396 29.6265C7.87651 29.4791 7.71233 29.3906 7.53655 29.3906H3.60671L4.32264 27.6574H8.69031C8.90265 27.6574 9.09418 27.5287 9.17567 27.3312L10.7841 23.4375H11.6967C11.8551 23.6365 12.0161 23.8356 12.1814 24.0346C14.8944 27.2992 17.5658 29.3951 17.6782 29.4828C17.773 29.5567 17.8865 29.5935 18 29.5935C18.1134 29.5935 18.227 29.5566 18.3217 29.4828C18.3835 29.4346 19.2187 28.779 20.4081 27.6575H26.3622C26.6526 27.6575 26.888 27.4203 26.888 27.1278C26.888 26.8352 26.6526 26.598 26.3622 26.598H21.4918C22.2208 25.8595 23.0175 24.9985 23.8186 24.0346C23.9839 23.8357 24.145 23.6367 24.3033 23.4376H29.9342L31.2397 26.598H28.4653C28.175 26.598 27.9396 26.8352 27.9396 27.1278C27.9396 27.4203 28.1749 27.6575 28.4653 27.6575H31.6773L32.3932 29.3907H21.5602C21.3407 29.3907 21.1444 29.5279 21.0676 29.7351C20.9908 29.9422 21.0498 30.1756 21.2155 30.3205L26.4983 34.9405H23.4095ZM28.1025 34.9405L22.968 30.4502H32.831L34.6859 34.9405H28.1025Z" fill="#1DA1F2"/>
</g>
<defs>
<clipPath id="clip0_201_984">
<rect width="36" height="36" fill="white"/>
</clipPath>
</defs>
</svg>
