<svg width="30" height="30" viewBox="0 0 30 30" fill="none" xmlns="http://www.w3.org/2000/svg">
<path d="M23.2716 28.125H6.72844C5.44161 28.1238 4.20784 27.612 3.29791 26.7021C2.38798 25.7922 1.87624 24.5584 1.875 23.2716V6.72844C1.87624 5.44161 2.38798 4.20784 3.29791 3.29791C4.20784 2.38798 5.44161 1.87624 6.72844 1.875H23.2716C24.5584 1.87624 25.7922 2.38798 26.7021 3.29791C27.612 4.20784 28.1238 5.44161 28.125 6.72844V23.2716C28.1238 24.5584 27.612 25.7922 26.7021 26.7021C25.7922 27.612 24.5584 28.1238 23.2716 28.125ZM26.25 6.72844C26.2493 5.93874 25.9352 5.18159 25.3768 4.62319C24.8184 4.06478 24.0613 3.75074 23.2716 3.75H6.72844C5.93874 3.75074 5.18159 4.06478 4.62319 4.62319C4.06478 5.18159 3.75074 5.93874 3.75 6.72844V23.2716C3.75074 24.0613 4.06478 24.8184 4.62319 25.3768C5.18159 25.9352 5.93874 26.2493 6.72844 26.25H23.2716C24.0613 26.2493 24.8184 25.9352 25.3768 25.3768C25.9352 24.8184 26.2493 24.0613 26.25 23.2716V6.72844Z" fill="white"/>
<path d="M21.5625 15.9375H15.9375V21.5625C15.9375 21.8111 15.8387 22.0496 15.6629 22.2254C15.4871 22.4012 15.2486 22.5 15 22.5C14.7514 22.5 14.5129 22.4012 14.3371 22.2254C14.1613 22.0496 14.0625 21.8111 14.0625 21.5625V15.9375H8.4375C8.18886 15.9375 7.9504 15.8387 7.77459 15.6629C7.59877 15.4871 7.5 15.2486 7.5 15C7.5 14.7514 7.59877 14.5129 7.77459 14.3371C7.9504 14.1613 8.18886 14.0625 8.4375 14.0625H14.0625V8.4375C14.0625 8.18886 14.1613 7.9504 14.3371 7.77459C14.5129 7.59877 14.7514 7.5 15 7.5C15.2486 7.5 15.4871 7.59877 15.6629 7.77459C15.8387 7.9504 15.9375 8.18886 15.9375 8.4375V14.0625H21.5625C21.8111 14.0625 22.0496 14.1613 22.2254 14.3371C22.4012 14.5129 22.5 14.7514 22.5 15C22.5 15.2486 22.4012 15.4871 22.2254 15.6629C22.0496 15.8387 21.8111 15.9375 21.5625 15.9375Z" fill="white"/>
</svg>
