<svg width="49" height="49" viewBox="0 0 49 49" fill="none" xmlns="http://www.w3.org/2000/svg">
<circle cx="24.5" cy="24.5" r="24.5" fill="#292071"/>
<g clip-path="url(#clip0_176_669)">
<path d="M21.2778 12C26.3937 12 30.5557 16.162 30.5557 21.2779C30.5557 23.0427 30.0602 24.694 29.2013 26.1001C34.0705 29.9272 34.6084 30.465 34.7898 30.6464L36.1432 31.9998C37.2856 33.1422 37.2856 35.0009 36.1432 36.1433C35.5721 36.7144 34.8218 37 34.0715 37C33.3213 37 32.571 36.7144 31.9998 36.1433L30.6465 34.7899C30.4661 34.6095 29.9268 34.0701 26.1223 29.1874C24.7114 30.0547 23.0521 30.5557 21.2778 30.5557C19.8838 30.5557 18.5432 30.2539 17.2933 29.6586C16.8063 29.4267 16.5995 28.8439 16.8314 28.357C17.0634 27.87 17.6462 27.6631 18.1331 27.8952C19.1186 28.3645 20.1766 28.6025 21.2778 28.6025C25.3166 28.6025 28.6024 25.3166 28.6024 21.2779C28.6024 17.2391 25.3166 13.9532 21.2778 13.9532C17.239 13.9532 13.9532 17.2391 13.9532 21.2779C13.9532 22.6007 14.3093 23.8967 14.9831 25.0256C15.2596 25.4887 15.1082 26.0883 14.645 26.3648C14.1818 26.6412 13.5823 26.4898 13.3059 26.0266C12.4515 24.5952 11.9999 22.9531 11.9999 21.2779C12 16.162 16.162 12 21.2778 12ZM32.0275 33.4087L33.3809 34.7621C33.7617 35.1429 34.3813 35.1429 34.7621 34.7621C35.1428 34.3813 35.1428 33.7618 34.7621 33.381L33.4087 32.0276C33.1667 31.7856 32.1371 30.8923 28.0138 27.6511C27.9023 27.769 27.7878 27.8842 27.6702 27.9961C30.9007 32.1419 31.7877 33.1688 32.0275 33.4087ZM16.3484 19.1413C16.1337 19.6361 16.3608 20.2112 16.8556 20.426C16.9821 20.4809 17.1141 20.5069 17.2438 20.5069C17.6212 20.5069 17.9804 20.287 18.1402 19.9188C18.683 18.6679 19.9146 17.8597 21.2778 17.8597C21.8172 17.8597 22.2544 17.4225 22.2544 16.8831C22.2544 16.3437 21.8172 15.9065 21.2778 15.9065C19.136 15.9065 17.2011 17.1762 16.3484 19.1413Z" fill="white"/>
</g>
<defs>
<clipPath id="clip0_176_669">
<rect width="25" height="25" fill="white" transform="matrix(-1 0 0 1 37 12)"/>
</clipPath>
</defs>
</svg>
