<svg width="24" height="20" viewBox="0 0 24 20" fill="none" xmlns="http://www.w3.org/2000/svg">
<path d="M20.9567 2.71248L21.2729 3.63798C21.6875 3.58829 22.0941 3.51407 22.4914 3.41653C22.1195 3.79923 21.7144 4.14973 21.2803 4.46369L21.0616 4.62179L21.0738 4.89132C21.0827 5.09024 21.0877 5.2904 21.0877 5.48779C21.0877 11.6021 16.4372 18.615 7.9594 18.615H7.95885C6.12244 18.6171 4.31409 18.2315 2.64924 17.4921C4.60086 17.3229 6.46843 16.5895 8.01933 15.372L9.12435 14.5046L7.71976 14.4788C6.82458 14.4624 5.95694 14.1665 5.23831 13.6325C4.73577 13.259 4.3237 12.7822 4.02763 12.2378C4.53307 12.2483 5.03898 12.1869 5.52991 12.0541L5.49832 11.0813C4.52734 10.8851 3.65414 10.359 3.02689 9.59228C2.55738 9.01836 2.24732 8.33608 2.1211 7.61377C2.6308 7.79375 3.1668 7.89495 3.71057 7.91225L5.45838 7.96787L4.00416 6.9967C3.41679 6.60445 2.93533 6.07328 2.60249 5.45033C2.26965 4.82737 2.09572 4.13189 2.09613 3.4256V3.42531C2.09613 2.89834 2.19154 2.39323 2.36582 1.9257C3.51737 3.19192 4.89137 4.23961 6.42182 5.01551C8.18512 5.90947 10.1167 6.42267 12.0912 6.52181L12.7548 6.55513L12.603 5.90822C12.3871 4.98805 12.481 4.02233 12.8702 3.16101L12.4146 2.95513L12.8702 3.16101C13.2594 2.29969 13.9221 1.59095 14.7553 1.14483C15.5886 0.698703 16.5458 0.540158 17.4784 0.693806C18.411 0.847454 19.2668 1.3047 19.9128 1.99455L20.1022 2.19676L20.3741 2.1434C20.9945 2.02161 21.601 1.84183 22.1856 1.60706C21.8539 2.04799 21.4378 2.42458 20.9567 2.71248Z" fill="#1DA1F2" stroke="#1DA1F2"/>
</svg>
