<svg width="56" height="56" viewBox="0 0 56 56" fill="none" xmlns="http://www.w3.org/2000/svg">
<g clip-path="url(#clip0_176_738)">
<path d="M20.6267 35H11.0833C10.1173 35 9.33333 34.216 9.33333 33.25C9.33333 32.284 10.1173 31.5 11.0833 31.5H20.6267C21.5927 31.5 22.3767 32.284 22.3767 33.25C22.3767 34.216 21.5927 35 20.6267 35Z" fill="#292071"/>
<path d="M19.25 42H11.0833C10.1173 42 9.33333 41.216 9.33333 40.25C9.33333 39.284 10.1173 38.5 11.0833 38.5H19.25C20.216 38.5 21 39.284 21 40.25C21 41.216 20.216 42 19.25 42Z" fill="#292071"/>
<path d="M19.25 49H6.41667C2.877 49 0 46.123 0 42.5833V6.41667C0 2.877 2.877 0 6.41667 0H33.25C36.7897 0 39.6667 2.877 39.6667 6.41667V19.39C39.6667 20.356 38.8827 21.14 37.9167 21.14C36.9507 21.14 36.1667 20.356 36.1667 19.39V6.41667C36.1667 4.809 34.8577 3.5 33.25 3.5H6.41667C4.809 3.5 3.5 4.809 3.5 6.41667V42.5833C3.5 44.191 4.809 45.5 6.41667 45.5H19.25C20.216 45.5 21 46.284 21 47.25C21 48.216 20.216 49 19.25 49Z" fill="#292071"/>
<path d="M19.8333 16.3333C22.4107 16.3333 24.5 14.244 24.5 11.6667C24.5 9.08934 22.4107 7 19.8333 7C17.256 7 15.1667 9.08934 15.1667 11.6667C15.1667 14.244 17.256 16.3333 19.8333 16.3333Z" fill="#292071"/>
<path d="M27.4167 28H12.25C11.284 28 10.5 27.216 10.5 26.25V25.0833C10.5 21.5437 13.377 18.6667 16.9167 18.6667H22.75C26.2897 18.6667 29.1667 21.5437 29.1667 25.0833V26.25C29.1667 27.216 28.3827 28 27.4167 28Z" fill="#292071"/>
<path d="M40.8333 25.6667C32.4707 25.6667 25.6667 32.4707 25.6667 40.8333C25.6667 49.196 32.4707 56 40.8333 56C49.196 56 56 49.196 56 40.8333C56 32.4707 49.196 25.6667 40.8333 25.6667ZM48.4213 37.121L40.2547 46.4543C39.3657 47.4693 37.8023 47.5207 36.8503 46.5663L32.1837 41.8997C31.2713 40.9873 31.2713 39.5127 32.1837 38.6003C33.096 37.688 34.5707 37.688 35.483 38.6003L38.3857 41.503L44.9097 34.0457C45.759 33.0797 47.2337 32.977 48.202 33.8263C49.1703 34.6757 49.2707 36.1503 48.4213 37.121Z" fill="#292071"/>
</g>
<defs>
<clipPath id="clip0_176_738">
<rect width="56" height="56" fill="white"/>
</clipPath>
</defs>
</svg>
